#!OML:ASF X:\für Bonn\!DataBase\2005_08_11_Bastian_Final\c3d\Bastian.ASF
:FULLY-SPECIFIED
:DEGREES
32
root -2.00209 16.629 -8.5825 167.421 -6.07735 -175.763
lowerback 12.7776 -3.55747 -3.28368
upperback 7.61747 -6.09085 -0.382009
thorax 1.1483 -3.5875 2.11203
lowerneck -2.74919 -5.397 -3.95124
upperneck -7.55366 -5.77145 14.5559
head -1.17292 -2.72627 5.01001
rclavicle -5.99336e-014 4.13472e-014
rhumerus -11.9354 34.2102 -89.8797
rradius 125.501
rwrist 10.5392
rhand -25.1202 15.0795
rfingers 7.12502
rthumb 1.39544 -14.8957
lclavicle -5.99336e-014 4.13472e-014
lhumerus -11.6266 -53.2797 97.347
lradius 120.198
lwrist 41.7397
lhand -2.30611 -17.9395
lfingers 7.12502
lthumb 23.3798 10.6604
rfemur -34.4963 -8.58871 24.9784
rtibia 73.1684
rfoot -202.077 -182.3
rtoes 0.0180797
lfemur 17.8997 -1.94674 -15.7413
ltibia 29.9587
lfoot -25.4449 -17.3013
ltoes -4.50476
33
root -2.00529 16.6239 -8.66305 167.447 -6.76039 -175.854
lowerback 12.9779 -3.56196 -3.38089
upperback 7.69823 -6.13083 -0.424788
thorax 1.13443 -3.61817 2.13848
lowerneck -2.92921 -5.60595 -3.88111
upperneck -7.6513 -6.01077 14.7353
head -1.14396 -2.83363 5.04611
rclavicle 2.51463e-014 -9.54166e-015
rhumerus -11.6451 34.0293 -89.6414
rradius 125.868
rwrist 10.7858
rhand -25.2339 15.0375
rfingers 7.12502
rthumb 1.28567 -14.9384
lclavicle 2.51463e-014 -9.54166e-015
lhumerus -11.5388 -53.5005 97.563
lradius 120.263
lwrist 41.7374
lhand -2.4895 -18.1757
lfingers 7.12502
lthumb 23.2038 10.4465
rfemur -35.1529 -8.92723 24.7787
rtibia 71.8037
rfoot -201.584 -182.288
rtoes -0.43832
lfemur 18.3698 -2.16815 -15.7765
ltibia 29.3239
lfoot -25.396 -17.6903
ltoes -4.71294
34
root -2.00753 16.619 -8.74799 167.488 -7.46312 -175.937
lowerback 13.1309 -3.57065 -3.44882
upperback 7.77574 -6.16887 -0.474176
thorax 1.13862 -3.64574 2.1378
lowerneck -3.09807 -5.81556 -3.82912
upperneck -7.77142 -6.24525 14.9365
head -1.12197 -2.93845 5.09222
rclavicle -3.29983e-014 3.4191e-014
rhumerus -11.4438 33.8516 -89.445
rradius 126.231
rwrist 10.921
rhand -25.3064 15.075
rfingers 7.12502
rthumb 1.2156 -14.9013
lclavicle -3.29983e-014 3.4191e-014
lhumerus -11.5363 -53.7286 97.8346
lradius 120.356
lwrist 41.6793
lhand -2.66144 -18.3669
lfingers 7.12502
lthumb 23.0389 10.276
rfemur -35.7371 -9.27675 24.5802
rtibia 70.3693
rfoot -201.097 -182.315
rtoes -1.04292
lfemur 18.868 -2.39741 -15.7864
ltibia 28.6121
lfoot -25.2906 -18.1203
ltoes -4.6395
35
root -2.00913 16.6132 -8.83489 167.54 -8.15755 -176.046
lowerback 13.273 -3.58121 -3.56633
upperback 7.85767 -6.21545 -0.521893
thorax 1.15951 -3.68008 2.16559
lowerneck -3.29583 -6.00577 -3.70443
upperneck -7.88113 -6.46077 15.053
head -1.10014 -3.03373 5.09953
rclavicle -3.45885e-014 7.95139e-016
rhumerus -11.2689 33.7069 -89.279
rradius 126.527
rwrist 11.0322
rhand -25.4099 15.2398
rfingers 7.12502
rthumb 1.11569 -14.7371
lclavicle -3.45885e-014 7.95139e-016
lhumerus -11.4711 -53.8996 98.0504
lradius 120.461
lwrist 41.5638
lhand -2.80492 -18.4439
lfingers 7.12502
lthumb 22.9012 10.2161
rfemur -36.2694 -9.60763 24.3462
rtibia 68.8924
rfoot -200.635 -182.347
rtoes -1.6336
lfemur 19.39 -2.58067 -15.7912
ltibia 27.8387
lfoot -25.1303 -18.6104
ltoes -4.50221
36
root -2.01053 16.6079 -8.92405 167.627 -8.86752 -176.225
lowerback 13.413 -3.61271 -3.79102
upperback 7.90302 -6.29579 -0.56993
thorax 1.15711 -3.73118 2.25757
lowerneck -3.40182 -6.15979 -3.60732
upperneck -8.01688 -6.62746 15.1623
head -1.10509 -3.11016 5.11312
rclavicle -5.25785e-014 1.59028e-014
rhumerus -11.2181 33.6718 -89.1881
rradius 126.785
rwrist 11.0912
rhand -25.514 15.4531
rfingers 7.12502
rthumb 1.0151 -14.5242
lclavicle -5.25785e-014 1.59028e-014
lhumerus -11.444 -53.9723 98.3171
lradius 120.543
lwrist 41.4377
lhand -2.90162 -18.466
lfingers 7.12502
lthumb 22.8084 10.2055
rfemur -36.7526 -9.93242 24.0233
rtibia 67.3863
rfoot -200.216 -182.361
rtoes -2.19475
lfemur 19.8895 -2.71454 -15.842
ltibia 27.0496
lfoot -24.9211 -19.1235
ltoes -4.13581
37
root -2.01216 16.6 -9.0152 167.733 -9.5632 -176.426
lowerback 13.5269 -3.64125 -4.02488
upperback 7.94774 -6.37195 -0.621307
thorax 1.16888 -3.78038 2.34825
lowerneck -3.50185 -6.30347 -3.54903
upperneck -8.16585 -6.77474 15.3043
head -1.11362 -3.17635 5.14378
rclavicle -1.27222e-014 3.10104e-014
rhumerus -11.1692 33.6606 -89.0947
rradius 126.988
rwrist 11.119
rhand -25.6091 15.6735
rfingers 7.12502
rthumb 0.92327 -14.3043
lclavicle -1.27222e-014 3.10104e-014
lhumerus -11.3445 -54.0491 98.5377
lradius 120.552
lwrist 41.2112
lhand -3.01471 -18.4628
lfingers 7.12502
lthumb 22.6998 10.222
rfemur -37.1661 -10.2331 23.6691
rtibia 65.8645
rfoot -199.879 -182.364
rtoes -2.47658
lfemur 20.3937 -2.87926 -15.9318
ltibia 26.2619
lfoot -24.7257 -19.6149
ltoes -3.81508
38
root -2.01337 16.5885 -9.10822 167.864 -10.2762 -176.686
lowerback 13.6187 -3.6655 -4.29727
upperback 7.98333 -6.44416 -0.69877
thorax 1.18425 -3.82724 2.43113
lowerneck -3.57974 -6.46395 -3.46596
upperneck -8.33029 -6.94526 15.4195
head -1.13032 -3.2562 5.16265
rclavicle 3.00165e-014 -1.66979e-014
rhumerus -11.2068 33.6646 -89.0093
rradius 127.219
rwrist 11.0058
rhand -25.6683 15.8648
rfingers 7.12502
rthumb 0.866142 -14.1132
lclavicle 3.00165e-014 -1.66979e-014
lhumerus -11.187 -54.1705 98.7125
lradius 120.512
lwrist 41.0065
lhand -3.1031 -18.4608
lfingers 7.12502
lthumb 22.615 10.2344
rfemur -37.4944 -10.5053 23.2311
rtibia 64.3276
rfoot -199.659 -182.366
rtoes -2.74553
lfemur 20.8714 -2.94257 -16.0099
ltibia 25.4782
lfoot -24.4414 -20.2706
ltoes -2.9827
39
root -2.0139 16.5743 -9.20341 168.003 -10.9823 -176.966
lowerback 13.7189 -3.69664 -4.61061
upperback 8.00296 -6.52918 -0.759409
thorax 1.18676 -3.88092 2.55687
lowerneck -3.66648 -6.60509 -3.43181
upperneck -8.48183 -7.09061 15.5492
head -1.14134 -3.32212 5.19386
rclavicle -1.80894e-014 -5.00937e-014
rhumerus -11.2586 33.7024 -88.9213
rradius 127.416
rwrist 10.8317
rhand -25.7056 16.0161
rfingers 7.12502
rthumb 0.830041 -13.962
lclavicle -1.80894e-014 -5.00937e-014
lhumerus -11.0216 -54.2419 98.8879
lradius 120.496
lwrist 40.7746
lhand -3.16237 -18.4291
lfingers 7.12502
lthumb 22.5581 10.273
rfemur -37.7431 -10.7619 22.7758
rtibia 62.7855
rfoot -199.548 -182.412
rtoes -3.18428
lfemur 21.3556 -2.97256 -16.0828
ltibia 24.6992
lfoot -24.136 -20.9351
ltoes -2.28908
40
root -2.01451 16.5596 -9.3011 168.137 -11.6686 -177.249
lowerback 13.7986 -3.72635 -4.90597
upperback 8.03069 -6.6108 -0.82988
thorax 1.20605 -3.93309 2.65954
lowerneck -3.7973 -6.74963 -3.39285
upperneck -8.58374 -7.25019 15.6583
head -1.1303 -3.39219 5.21504
rclavicle 1.78906e-015 -1.03368e-014
rhumerus -11.3481 33.7338 -88.8392
rradius 127.577
rwrist 10.5702
rhand -25.7444 16.1494
rfingers 7.12502
rthumb 0.7926 -13.8289
lclavicle 1.78906e-015 -1.03368e-014
lhumerus -10.8098 -54.3424 99.0185
lradius 120.474
lwrist 40.4845
lhand -3.28534 -18.4062
lfingers 7.12502
lthumb 22.4401 10.3102
rfemur -37.8926 -10.9403 22.3019
rtibia 61.2287
rfoot -199.503 -182.505
rtoes -3.33889
lfemur 21.8764 -3.12004 -16.2286
ltibia 23.9139
lfoot -23.825 -21.4489
ltoes -1.38896
